<svg xmlns="http://www.w3.org/2000/svg" xmlns:xlink="http://www.w3.org/1999/xlink" width="1080" height="1080" viewBox="0 0 1080 1080">
  <defs>
    <filter id="letter" x="216.5" y="128.5" width="651" height="831" filterUnits="userSpaceOnUse">
      <feOffset dx="2" dy="4" input="SourceAlpha"/>
      <feGaussianBlur stdDeviation="3.5" result="blur"/>
      <feFlood flood-opacity="0.161"/>
      <feComposite operator="in" in2="blur"/>
      <feComposite in="SourceGraphic"/>
    </filter>
    <filter id="fold" x="614" y="126" width="255" height="255" filterUnits="userSpaceOnUse">
      <feOffset dx="-1" dy="6" input="SourceAlpha"/>
      <feGaussianBlur stdDeviation="5" result="blur-2"/>
      <feFlood flood-opacity="0.161"/>
      <feComposite operator="in" in2="blur-2"/>
      <feComposite in="SourceGraphic"/>
    </filter>
    <filter id="bookmark-background" x="356" y="582" width="597" height="327" filterUnits="userSpaceOnUse">
      <feOffset dx="2" dy="3" input="SourceAlpha"/>
      <feGaussianBlur stdDeviation="17" result="blur-3"/>
      <feFlood flood-opacity="0.161"/>
      <feComposite operator="in" in2="blur-3"/>
      <feComposite in="SourceGraphic"/>
    </filter>
    <clipPath id="clip-light-bg-export">
      <rect width="1080" height="1080"/>
    </clipPath>
  </defs>
  <g id="light-bg-export" clip-path="url(#clip-light-bg-export)">
    <g id="logo" transform="translate(45 67.5)">
      <g id="file" transform="translate(180 90)">
        <g transform="matrix(1, 0, 0, 1, -225, -157.5)" filter="url(#letter)">
          <path id="letter-2" data-name="letter" d="M810,877.5H180V67.5H585l225,225Z" transform="translate(45 67.5)" fill="#6a6a6a"/>
        </g>
        <g transform="matrix(1, 0, 0, 1, -225, -157.5)" filter="url(#fold)">
          <path id="fold-2" data-name="fold" d="M717.353,22.5v225h225Z" transform="translate(-87.35 112.5)" fill="#2e2e2e"/>
        </g>
      </g>
      <g id="bookmark" transform="translate(360.294 526.617)">
        <g transform="matrix(1, 0, 0, 1, -405.29, -594.12)" filter="url(#bookmark-background)">
          <rect id="bookmark-background-2" data-name="bookmark-background" width="495" height="225" transform="translate(405 630)" fill="#d2d2d2"/>
        </g>
        <path id="Pfad_1" data-name="Pfad 1" d="M51.09,1.95A81.477,81.477,0,0,1,25.35-2.243,58.757,58.757,0,0,1,3.9-14.43L15.015-33.54A92.5,92.5,0,0,0,33.248-23.6a46.312,46.312,0,0,0,17.063,3.51q6.045,0,9.36-2.145a6.976,6.976,0,0,0,3.315-6.24q0-4.095-4.193-6.532T44.07-40.17Q33.735-43.1,26.618-45.825a49.233,49.233,0,0,1-11.6-6.045A19.629,19.629,0,0,1,8.58-59.475a24.329,24.329,0,0,1-1.95-10.14A32.194,32.194,0,0,1,9.75-83.85a32.052,32.052,0,0,1,8.58-10.92A40.723,40.723,0,0,1,31.3-101.79a50.594,50.594,0,0,1,16.283-2.535,72.255,72.255,0,0,1,21.548,3.12A53.877,53.877,0,0,1,88.53-89.9L76.44-71.175a82.386,82.386,0,0,0-15.6-8.775,35.594,35.594,0,0,0-13.26-2.73A16.768,16.768,0,0,0,39-80.632,7,7,0,0,0,35.49-74.1a6.945,6.945,0,0,0,3.8,6.435q3.8,2.145,14.138,4.68a179.855,179.855,0,0,1,18.428,5.85A49.291,49.291,0,0,1,84.045-50.6a22.143,22.143,0,0,1,6.825,8.288A26.491,26.491,0,0,1,93.015-31.2q0,15.21-11.31,24.18T51.09,1.95ZM209.04,0h-31.2V-57.525q0-9.945-3.9-14.625t-10.725-4.68a16.33,16.33,0,0,0-5.948,1.268,23.935,23.935,0,0,0-6.24,3.7,33.42,33.42,0,0,0-5.557,5.753,25.24,25.24,0,0,0-3.9,7.41V0h-31.2V-142.35h31.2v57.135a38.918,38.918,0,0,1,14.917-14.138,42.393,42.393,0,0,1,20.378-4.972q10.335,0,16.673,3.608a26.552,26.552,0,0,1,9.75,9.165,34.623,34.623,0,0,1,4.582,12.48,81.251,81.251,0,0,1,1.17,13.552Z" transform="translate(37.706 214.883)" fill="#2e2e2e"/>
      </g>
    </g>
  </g>
</svg>
